<mxfile host="app.diagrams.net" agent="Mozilla/5.0 (Windows NT 10.0; Win64; x64) AppleWebKit/537.36 (KHTML, like Gecko) Chrome/132.0.0.0 Safari/537.36 OPR/117.0.0.0" version="26.1.0">
  <diagram id="C5RBs43oDa-KdzZeNtuy" name="Page-1">
    <mxGraphModel dx="826" dy="434" grid="1" gridSize="10" guides="1" tooltips="1" connect="1" arrows="1" fold="1" page="1" pageScale="1" pageWidth="827" pageHeight="1169" math="0" shadow="0">
      <root>
        <mxCell id="WIyWlLk6GJQsqaUBKTNV-0" />
        <mxCell id="WIyWlLk6GJQsqaUBKTNV-1" parent="WIyWlLk6GJQsqaUBKTNV-0" />
        <mxCell id="A3bkUaT_DAKk58mA0fja-4" value="" style="edgeStyle=orthogonalEdgeStyle;rounded=0;orthogonalLoop=1;jettySize=auto;html=1;" edge="1" parent="WIyWlLk6GJQsqaUBKTNV-1" source="WIyWlLk6GJQsqaUBKTNV-3" target="A3bkUaT_DAKk58mA0fja-1">
          <mxGeometry relative="1" as="geometry" />
        </mxCell>
        <mxCell id="WIyWlLk6GJQsqaUBKTNV-3" value="Início" style="rounded=1;whiteSpace=wrap;html=1;fontSize=12;glass=0;strokeWidth=1;shadow=0;" parent="WIyWlLk6GJQsqaUBKTNV-1" vertex="1">
          <mxGeometry x="354" y="20" width="120" height="40" as="geometry" />
        </mxCell>
        <mxCell id="WIyWlLk6GJQsqaUBKTNV-11" value="Fim" style="rounded=1;whiteSpace=wrap;html=1;fontSize=12;glass=0;strokeWidth=1;shadow=0;" parent="WIyWlLk6GJQsqaUBKTNV-1" vertex="1">
          <mxGeometry x="354" y="990" width="120" height="40" as="geometry" />
        </mxCell>
        <mxCell id="A3bkUaT_DAKk58mA0fja-37" style="edgeStyle=orthogonalEdgeStyle;rounded=0;orthogonalLoop=1;jettySize=auto;html=1;" edge="1" parent="WIyWlLk6GJQsqaUBKTNV-1" source="A3bkUaT_DAKk58mA0fja-1" target="A3bkUaT_DAKk58mA0fja-36">
          <mxGeometry relative="1" as="geometry" />
        </mxCell>
        <mxCell id="A3bkUaT_DAKk58mA0fja-1" value="float imc&lt;div&gt;float altura&lt;/div&gt;&lt;div&gt;float peso&lt;/div&gt;" style="rounded=0;whiteSpace=wrap;html=1;" vertex="1" parent="WIyWlLk6GJQsqaUBKTNV-1">
          <mxGeometry x="327" y="90" width="174" height="70" as="geometry" />
        </mxCell>
        <mxCell id="A3bkUaT_DAKk58mA0fja-49" style="edgeStyle=orthogonalEdgeStyle;rounded=0;orthogonalLoop=1;jettySize=auto;html=1;" edge="1" parent="WIyWlLk6GJQsqaUBKTNV-1" source="A3bkUaT_DAKk58mA0fja-2" target="A3bkUaT_DAKk58mA0fja-48">
          <mxGeometry relative="1" as="geometry" />
        </mxCell>
        <mxCell id="A3bkUaT_DAKk58mA0fja-2" value="alura" style="shape=manualInput;whiteSpace=wrap;html=1;" vertex="1" parent="WIyWlLk6GJQsqaUBKTNV-1">
          <mxGeometry x="362" y="390" width="104" height="80" as="geometry" />
        </mxCell>
        <mxCell id="A3bkUaT_DAKk58mA0fja-8" style="edgeStyle=orthogonalEdgeStyle;rounded=0;orthogonalLoop=1;jettySize=auto;html=1;" edge="1" parent="WIyWlLk6GJQsqaUBKTNV-1" source="A3bkUaT_DAKk58mA0fja-3" target="A3bkUaT_DAKk58mA0fja-2">
          <mxGeometry relative="1" as="geometry" />
        </mxCell>
        <mxCell id="A3bkUaT_DAKk58mA0fja-3" value="&quot;Insira sua altura&quot;" style="shape=display;whiteSpace=wrap;html=1;" vertex="1" parent="WIyWlLk6GJQsqaUBKTNV-1">
          <mxGeometry x="344" y="300" width="140" height="70" as="geometry" />
        </mxCell>
        <mxCell id="A3bkUaT_DAKk58mA0fja-36" value="float imc = 0&lt;div&gt;float altura&amp;nbsp;&lt;span style=&quot;background-color: transparent; color: light-dark(rgb(0, 0, 0), rgb(255, 255, 255));&quot;&gt;= 0&lt;/span&gt;&lt;/div&gt;&lt;div&gt;float peso&amp;nbsp;&lt;span style=&quot;background-color: transparent; color: light-dark(rgb(0, 0, 0), rgb(255, 255, 255));&quot;&gt;= 0&lt;/span&gt;&lt;/div&gt;" style="rounded=0;whiteSpace=wrap;html=1;" vertex="1" parent="WIyWlLk6GJQsqaUBKTNV-1">
          <mxGeometry x="327" y="190" width="174" height="70" as="geometry" />
        </mxCell>
        <mxCell id="A3bkUaT_DAKk58mA0fja-38" style="edgeStyle=orthogonalEdgeStyle;rounded=0;orthogonalLoop=1;jettySize=auto;html=1;entryX=0;entryY=0;entryDx=70;entryDy=0;entryPerimeter=0;" edge="1" parent="WIyWlLk6GJQsqaUBKTNV-1" source="A3bkUaT_DAKk58mA0fja-36" target="A3bkUaT_DAKk58mA0fja-3">
          <mxGeometry relative="1" as="geometry" />
        </mxCell>
        <mxCell id="A3bkUaT_DAKk58mA0fja-39" value="imc =&lt;div&gt;peso / (altura * altura)&lt;/div&gt;" style="rounded=0;whiteSpace=wrap;html=1;" vertex="1" parent="WIyWlLk6GJQsqaUBKTNV-1">
          <mxGeometry x="327" y="720" width="174" height="100" as="geometry" />
        </mxCell>
        <mxCell id="A3bkUaT_DAKk58mA0fja-46" style="edgeStyle=orthogonalEdgeStyle;rounded=0;orthogonalLoop=1;jettySize=auto;html=1;" edge="1" parent="WIyWlLk6GJQsqaUBKTNV-1" source="A3bkUaT_DAKk58mA0fja-44" target="WIyWlLk6GJQsqaUBKTNV-11">
          <mxGeometry relative="1" as="geometry" />
        </mxCell>
        <mxCell id="A3bkUaT_DAKk58mA0fja-44" value="&quot;Seu IMC é &quot;&lt;div&gt;+ imc&lt;/div&gt;" style="shape=display;whiteSpace=wrap;html=1;" vertex="1" parent="WIyWlLk6GJQsqaUBKTNV-1">
          <mxGeometry x="334" y="860" width="160" height="80" as="geometry" />
        </mxCell>
        <mxCell id="A3bkUaT_DAKk58mA0fja-47" style="edgeStyle=orthogonalEdgeStyle;rounded=0;orthogonalLoop=1;jettySize=auto;html=1;entryX=0;entryY=0;entryDx=80;entryDy=0;entryPerimeter=0;" edge="1" parent="WIyWlLk6GJQsqaUBKTNV-1" source="A3bkUaT_DAKk58mA0fja-39" target="A3bkUaT_DAKk58mA0fja-44">
          <mxGeometry relative="1" as="geometry" />
        </mxCell>
        <mxCell id="A3bkUaT_DAKk58mA0fja-48" value="&quot;insira seu peso&quot;" style="shape=display;whiteSpace=wrap;html=1;" vertex="1" parent="WIyWlLk6GJQsqaUBKTNV-1">
          <mxGeometry x="344" y="510" width="140" height="70" as="geometry" />
        </mxCell>
        <mxCell id="A3bkUaT_DAKk58mA0fja-52" style="edgeStyle=orthogonalEdgeStyle;rounded=0;orthogonalLoop=1;jettySize=auto;html=1;entryX=0.5;entryY=0;entryDx=0;entryDy=0;" edge="1" parent="WIyWlLk6GJQsqaUBKTNV-1" source="A3bkUaT_DAKk58mA0fja-50" target="A3bkUaT_DAKk58mA0fja-39">
          <mxGeometry relative="1" as="geometry" />
        </mxCell>
        <mxCell id="A3bkUaT_DAKk58mA0fja-50" value="peso" style="shape=manualInput;whiteSpace=wrap;html=1;" vertex="1" parent="WIyWlLk6GJQsqaUBKTNV-1">
          <mxGeometry x="362" y="600" width="104" height="80" as="geometry" />
        </mxCell>
        <mxCell id="A3bkUaT_DAKk58mA0fja-51" style="edgeStyle=orthogonalEdgeStyle;rounded=0;orthogonalLoop=1;jettySize=auto;html=1;entryX=0.51;entryY=0.163;entryDx=0;entryDy=0;entryPerimeter=0;" edge="1" parent="WIyWlLk6GJQsqaUBKTNV-1" source="A3bkUaT_DAKk58mA0fja-48" target="A3bkUaT_DAKk58mA0fja-50">
          <mxGeometry relative="1" as="geometry" />
        </mxCell>
      </root>
    </mxGraphModel>
  </diagram>
</mxfile>
